<svg xmlns="http://www.w3.org/2000/svg" xmlns:xlink="http://www.w3.org/1999/xlink" width="180" zoomAndPan="magnify" viewBox="0 0 135 30.000001" height="40" preserveAspectRatio="xMidYMid meet" version="1.0"><defs><g/><clipPath id="d98a3c89ff"><path d="M 2.175781 0 L 132.820312 0 L 132.820312 29.03125 L 2.175781 29.03125 Z M 2.175781 0 " clip-rule="nonzero"/></clipPath><clipPath id="ef400ff01f"><path d="M 9.570312 2.074219 L 34.246094 2.074219 L 34.246094 26.75 L 9.570312 26.75 Z M 9.570312 2.074219 " clip-rule="nonzero"/></clipPath></defs><g clip-path="url(#d98a3c89ff)"><path fill="#ffffff" d="M 2.175781 0 L 132.824219 0 L 132.824219 29.03125 L 2.175781 29.03125 Z M 2.175781 0 " fill-opacity="1" fill-rule="nonzero"/><path fill="#ffffff" d="M 2.175781 0 L 132.824219 0 L 132.824219 29.03125 L 2.175781 29.03125 Z M 2.175781 0 " fill-opacity="1" fill-rule="nonzero"/></g><g clip-path="url(#ef400ff01f)"><path fill="#ff3237" d="M 9.570312 2.074219 L 12.789062 2.074219 L 12.789062 26.949219 L 9.570312 26.949219 Z M 14.984375 26.949219 L 18.203125 26.949219 L 18.203125 2.074219 L 14.984375 2.074219 Z M 20.398438 26.949219 L 23.617188 26.949219 L 23.617188 2.074219 L 20.398438 2.074219 Z M 25.8125 26.949219 L 29.03125 26.949219 L 29.03125 2.074219 L 25.8125 2.074219 Z M 31.226562 2.074219 L 31.226562 26.949219 L 34.445312 26.949219 L 34.445312 2.074219 Z M 31.226562 2.074219 " fill-opacity="1" fill-rule="nonzero"/></g><g fill="#000000" fill-opacity="1"><g transform="translate(37.902124, 20.790346)"><g><path d="M 3.359375 -4.484375 L 3.359375 0 L 0.8125 0 L 0.8125 -11.171875 L 3.359375 -11.171875 L 3.359375 -6.71875 L 6.96875 -6.71875 L 6.96875 -11.171875 L 9.515625 -11.171875 L 9.515625 0 L 6.96875 0 L 6.96875 -4.484375 Z M 3.359375 -4.484375 "/></g></g></g><g fill="#000000" fill-opacity="1"><g transform="translate(47.556371, 20.790346)"><g><path d="M 3.078125 -6.953125 L 3.078125 -3.640625 C 3.078125 -2.953125 3.179688 -2.460938 3.390625 -2.171875 C 3.597656 -1.890625 3.945312 -1.75 4.4375 -1.75 C 4.9375 -1.75 5.289062 -1.890625 5.5 -2.171875 C 5.707031 -2.460938 5.8125 -2.953125 5.8125 -3.640625 L 5.8125 -6.953125 L 8.203125 -6.953125 L 8.203125 -3.0625 C 8.203125 -1.90625 7.898438 -1.070312 7.296875 -0.5625 C 6.703125 -0.0507812 5.75 0.203125 4.4375 0.203125 C 3.132812 0.203125 2.179688 -0.0507812 1.578125 -0.5625 C 0.972656 -1.070312 0.671875 -1.90625 0.671875 -3.0625 L 0.671875 -6.953125 Z M 3.078125 -6.953125 "/></g></g></g><g fill="#000000" fill-opacity="1"><g transform="translate(55.775296, 20.790346)"><g><path d="M 0.8125 0 L 0.8125 -6.953125 L 3.203125 -6.953125 L 3.203125 -6.21875 L 3.234375 -6.21875 C 3.859375 -6.84375 4.523438 -7.15625 5.234375 -7.15625 C 5.734375 -7.15625 6.203125 -7.050781 6.640625 -6.84375 C 7.085938 -6.632812 7.425781 -6.3125 7.65625 -5.875 C 8.351562 -6.726562 9.117188 -7.15625 9.953125 -7.15625 C 10.691406 -7.15625 11.328125 -6.945312 11.859375 -6.53125 C 12.398438 -6.113281 12.671875 -5.460938 12.671875 -4.578125 L 12.671875 0 L 10.265625 0 L 10.265625 -3.921875 C 10.265625 -4.296875 10.160156 -4.609375 9.953125 -4.859375 C 9.753906 -5.109375 9.453125 -5.234375 9.046875 -5.234375 C 8.691406 -5.234375 8.421875 -5.125 8.234375 -4.90625 C 8.054688 -4.695312 7.957031 -4.441406 7.9375 -4.140625 L 7.9375 0 L 5.546875 0 L 5.546875 -3.921875 C 5.546875 -4.296875 5.441406 -4.609375 5.234375 -4.859375 C 5.035156 -5.109375 4.734375 -5.234375 4.328125 -5.234375 C 3.953125 -5.234375 3.671875 -5.113281 3.484375 -4.875 C 3.296875 -4.644531 3.203125 -4.375 3.203125 -4.0625 L 3.203125 0 Z M 0.8125 0 "/></g></g></g><g fill="#000000" fill-opacity="1"><g transform="translate(68.449144, 20.790346)"><g><path d="M 1.28125 -0.859375 C 0.632812 -1.566406 0.3125 -2.4375 0.3125 -3.46875 C 0.3125 -4.5 0.632812 -5.367188 1.28125 -6.078125 C 1.9375 -6.796875 2.765625 -7.15625 3.765625 -7.15625 C 4.679688 -7.15625 5.441406 -6.863281 6.046875 -6.28125 L 6.046875 -6.953125 L 8.4375 -6.953125 L 8.4375 0 L 6.0625 0 L 6.0625 -0.78125 L 6.046875 -0.78125 C 5.441406 -0.125 4.679688 0.203125 3.765625 0.203125 C 2.765625 0.203125 1.9375 -0.148438 1.28125 -0.859375 Z M 3.328125 -4.640625 C 3.015625 -4.335938 2.859375 -3.945312 2.859375 -3.46875 C 2.859375 -2.988281 3.003906 -2.597656 3.296875 -2.296875 C 3.597656 -1.992188 3.992188 -1.84375 4.484375 -1.84375 C 4.953125 -1.84375 5.335938 -1.992188 5.640625 -2.296875 C 5.941406 -2.609375 6.09375 -3 6.09375 -3.46875 C 6.09375 -3.945312 5.9375 -4.335938 5.625 -4.640625 C 5.3125 -4.953125 4.929688 -5.109375 4.484375 -5.109375 C 4.023438 -5.109375 3.640625 -4.953125 3.328125 -4.640625 Z M 3.328125 -4.640625 "/></g></g></g><g fill="#000000" fill-opacity="1"><g transform="translate(77.033664, 20.790346)"><g><path d="M 0.8125 0 L 0.8125 -6.953125 L 3.203125 -6.953125 L 3.203125 -6.21875 L 3.234375 -6.21875 C 3.859375 -6.84375 4.523438 -7.15625 5.234375 -7.15625 C 5.578125 -7.15625 5.914062 -7.109375 6.25 -7.015625 C 6.59375 -6.921875 6.914062 -6.78125 7.21875 -6.59375 C 7.53125 -6.40625 7.785156 -6.132812 7.984375 -5.78125 C 8.179688 -5.4375 8.28125 -5.035156 8.28125 -4.578125 L 8.28125 0 L 5.875 0 L 5.875 -3.921875 C 5.875 -4.285156 5.757812 -4.601562 5.53125 -4.875 C 5.300781 -5.144531 5.003906 -5.28125 4.640625 -5.28125 C 4.273438 -5.28125 3.941406 -5.140625 3.640625 -4.859375 C 3.347656 -4.578125 3.203125 -4.265625 3.203125 -3.921875 L 3.203125 0 Z M 0.8125 0 "/></g></g></g><g fill="#000000" fill-opacity="1"><g transform="translate(85.32029, 20.790346)"><g><path d="M 0.8125 -11.171875 L 4.8125 -11.171875 C 5.882812 -11.171875 6.757812 -10.882812 7.4375 -10.3125 C 8.113281 -9.738281 8.453125 -8.921875 8.453125 -7.859375 C 8.453125 -7.035156 8.242188 -6.34375 7.828125 -5.78125 C 7.421875 -5.226562 6.863281 -4.84375 6.15625 -4.625 L 10.015625 0 L 6.78125 0 L 3.359375 -4.421875 L 3.359375 0 L 0.8125 0 Z M 3.359375 -6.21875 L 3.65625 -6.21875 C 3.894531 -6.21875 4.09375 -6.222656 4.25 -6.234375 C 4.414062 -6.242188 4.601562 -6.273438 4.8125 -6.328125 C 5.019531 -6.378906 5.1875 -6.453125 5.3125 -6.546875 C 5.4375 -6.648438 5.539062 -6.796875 5.625 -6.984375 C 5.71875 -7.179688 5.765625 -7.414062 5.765625 -7.6875 C 5.765625 -7.957031 5.71875 -8.1875 5.625 -8.375 C 5.539062 -8.5625 5.4375 -8.703125 5.3125 -8.796875 C 5.1875 -8.898438 5.019531 -8.976562 4.8125 -9.03125 C 4.601562 -9.082031 4.414062 -9.113281 4.25 -9.125 C 4.09375 -9.132812 3.894531 -9.140625 3.65625 -9.140625 L 3.359375 -9.140625 Z M 3.359375 -6.21875 "/></g></g></g><g fill="#000000" fill-opacity="1"><g transform="translate(94.351661, 20.790346)"><g><path d="M 7.84375 -3.140625 L 2.796875 -3.140625 C 2.796875 -2.648438 2.953125 -2.285156 3.265625 -2.046875 C 3.585938 -1.816406 3.9375 -1.703125 4.3125 -1.703125 C 4.695312 -1.703125 5 -1.753906 5.21875 -1.859375 C 5.445312 -1.960938 5.707031 -2.171875 6 -2.484375 L 7.734375 -1.609375 C 7.015625 -0.398438 5.8125 0.203125 4.125 0.203125 C 3.082031 0.203125 2.1875 -0.15625 1.4375 -0.875 C 0.6875 -1.59375 0.3125 -2.457031 0.3125 -3.46875 C 0.3125 -4.476562 0.6875 -5.34375 1.4375 -6.0625 C 2.1875 -6.789062 3.082031 -7.15625 4.125 -7.15625 C 5.226562 -7.15625 6.125 -6.835938 6.8125 -6.203125 C 7.507812 -5.566406 7.859375 -4.65625 7.859375 -3.46875 C 7.859375 -3.300781 7.851562 -3.191406 7.84375 -3.140625 Z M 2.875 -4.46875 L 5.515625 -4.46875 C 5.460938 -4.832031 5.316406 -5.109375 5.078125 -5.296875 C 4.847656 -5.492188 4.554688 -5.59375 4.203125 -5.59375 C 3.804688 -5.59375 3.488281 -5.488281 3.25 -5.28125 C 3.019531 -5.070312 2.894531 -4.800781 2.875 -4.46875 Z M 2.875 -4.46875 "/></g></g></g><g fill="#000000" fill-opacity="1"><g transform="translate(101.852919, 20.790346)"><g><path d="M 1.21875 -6.953125 L 1.21875 -9.53125 L 3.609375 -9.53125 L 3.609375 -6.953125 L 5.078125 -6.953125 L 5.078125 -5.125 L 3.609375 -5.125 L 3.609375 -2.90625 C 3.609375 -2.269531 3.789062 -1.953125 4.15625 -1.953125 C 4.25 -1.953125 4.34375 -1.96875 4.4375 -2 C 4.539062 -2.039062 4.617188 -2.078125 4.671875 -2.109375 L 4.75 -2.171875 L 5.34375 -0.234375 C 4.832031 0.0546875 4.25 0.203125 3.59375 0.203125 C 3.132812 0.203125 2.742188 0.125 2.421875 -0.03125 C 2.097656 -0.1875 1.851562 -0.394531 1.6875 -0.65625 C 1.519531 -0.925781 1.398438 -1.207031 1.328125 -1.5 C 1.253906 -1.800781 1.21875 -2.117188 1.21875 -2.453125 L 1.21875 -5.125 L 0.21875 -5.125 L 0.21875 -6.953125 Z M 1.21875 -6.953125 "/></g></g></g><g fill="#000000" fill-opacity="1"><g transform="translate(106.53768, 20.790346)"><g><path d="M 2.359375 -2.90625 C 2.785156 -2.90625 3.148438 -2.75 3.453125 -2.4375 C 3.765625 -2.132812 3.921875 -1.769531 3.921875 -1.34375 C 3.921875 -0.914062 3.765625 -0.550781 3.453125 -0.25 C 3.148438 0.0507812 2.785156 0.203125 2.359375 0.203125 C 1.929688 0.203125 1.566406 0.0507812 1.265625 -0.25 C 0.960938 -0.550781 0.8125 -0.914062 0.8125 -1.34375 C 0.8125 -1.769531 0.960938 -2.132812 1.265625 -2.4375 C 1.566406 -2.75 1.929688 -2.90625 2.359375 -2.90625 Z M 2.359375 -2.90625 "/></g></g></g><g fill="#000000" fill-opacity="1"><g transform="translate(110.599565, 20.790346)"><g><path d="M 1.046875 -10.828125 C 1.328125 -11.109375 1.660156 -11.25 2.046875 -11.25 C 2.429688 -11.25 2.765625 -11.109375 3.046875 -10.828125 C 3.328125 -10.546875 3.46875 -10.207031 3.46875 -9.8125 C 3.46875 -9.425781 3.328125 -9.09375 3.046875 -8.8125 C 2.765625 -8.539062 2.429688 -8.40625 2.046875 -8.40625 C 1.660156 -8.40625 1.328125 -8.539062 1.046875 -8.8125 C 0.765625 -9.09375 0.625 -9.425781 0.625 -9.8125 C 0.625 -10.207031 0.765625 -10.546875 1.046875 -10.828125 Z M 0.8125 -6.953125 L 0.8125 0 L 3.203125 0 L 3.203125 -6.953125 Z M 0.8125 -6.953125 "/></g></g></g><g fill="#000000" fill-opacity="1"><g transform="translate(114.025029, 20.790346)"><g><path d="M 0.8125 0 L 0.8125 -6.953125 L 3.203125 -6.953125 L 3.203125 -6.21875 L 3.234375 -6.21875 C 3.859375 -6.84375 4.523438 -7.15625 5.234375 -7.15625 C 5.578125 -7.15625 5.914062 -7.109375 6.25 -7.015625 C 6.59375 -6.921875 6.914062 -6.78125 7.21875 -6.59375 C 7.53125 -6.40625 7.785156 -6.132812 7.984375 -5.78125 C 8.179688 -5.4375 8.28125 -5.035156 8.28125 -4.578125 L 8.28125 0 L 5.875 0 L 5.875 -3.921875 C 5.875 -4.285156 5.757812 -4.601562 5.53125 -4.875 C 5.300781 -5.144531 5.003906 -5.28125 4.640625 -5.28125 C 4.273438 -5.28125 3.941406 -5.140625 3.640625 -4.859375 C 3.347656 -4.578125 3.203125 -4.265625 3.203125 -3.921875 L 3.203125 0 Z M 0.8125 0 "/></g></g></g></svg>