<svg width="180" height="40" viewBox="0 0 180 40" fill="none" xmlns="http://www.w3.org/2000/svg">
  <path d="M10 8H4V32H10V22H18V32H24V8H18V16H10V8Z" fill="#FFFFFF"/>
  <path d="M34 8H28V32H34V8Z" fill="#FFFFFF"/>
  <path d="M46 8H40V32H56V26H46V8Z" fill="#FFFFFF"/>
  <path d="M68 8H62V32H68V22H76V32H82V8H76V16H68V8Z" fill="#FFFFFF"/>
  <path d="M92 8H86V32H102V26H92V8Z" fill="#FFFFFF"/>
  <path d="M112 8H106V32H112V22H120V32H126V8H120V16H112V8Z" fill="#FFFFFF"/>
  <path d="M136 8H130V32H146V26H136V8Z" fill="#FFFFFF"/>
  <path d="M156 8H150V14H156V26H150V32H162V26H168V14H162V8H156Z" fill="#FFFFFF"/>
  <path d="M172 8V32H178V8H172Z" fill="#FF3237"/>
</svg>